<?xml version="1.0" encoding="UTF-8" standalone="no"?>
<svg
   viewBox="0 0 180 180"
   role="img"
   aria-labelledby="title description"
   version="1.1"
   id="dune-colossus-broken-svg"
   sodipodi:docname="dune-colossus-broken.svg"
   inkscape:version="1.4.4 (dcaf3e7, 2026-05-05)"
   xmlns:inkscape="http://www.inkscape.org/namespaces/inkscape"
   xmlns:sodipodi="http://sodipodi.sourceforge.net/DTD/sodipodi-0.dtd"
   xmlns="http://www.w3.org/2000/svg"
   xmlns:svg="http://www.w3.org/2000/svg">
  <sodipodi:namedview
     id="namedview1"
     pagecolor="#ffffff"
     bordercolor="#000000"
     borderopacity="0.25"
     inkscape:showpageshadow="2"
     inkscape:pageopacity="0.0"
     inkscape:pagecheckerboard="0"
     inkscape:deskcolor="#d1d1d1"
     inkscape:zoom="1.9323145"
     inkscape:cx="75.557059"
     inkscape:cy="93.670052"
     inkscape:window-width="1433"
     inkscape:window-height="763"
     inkscape:window-x="185"
     inkscape:window-y="162"
     inkscape:window-maximized="0"
     inkscape:current-layer="broken-scarab-crown" />
  <title
     id="title">Dune Colossus with shattered armor</title>
  <desc
     id="description">An enraged four-armed desert zombie emerging from broken sandstone plates beneath a cracked turquoise scarab crown.</desc>
  <defs
     id="definitions">
    <radialGradient
       id="raging-sand-orb-gradient">
      <stop
         id="raging-orb-core"
         offset="0"
         stop-color="#fff4b7" />
      <stop
         id="raging-orb-edge"
         offset="1"
         stop-color="#d96a32" />
    </radialGradient>
  </defs>
  <g
     id="dune-colossus-broken"
     transform="translate(90 93)"
     stroke-linejoin="round">
    <g
       id="four-arms"
       fill="#5f865d"
       stroke="#294b38"
       stroke-width="6"
       transform="translate(0.98347372,-0.93209377)"
       style="fill:#e8bb66;fill-opacity:1;stroke:#754a2d;stroke-opacity:1">
      <path
         id="upper-left-arm"
         d="m -44,-40 -32,-17 -12,19 27,23 21,-4 z"
         style="fill:#e8bb66;fill-opacity:1;stroke:#754a2d;stroke-opacity:1" />
      <path
         id="lower-left-arm"
         d="m -48,20 -32,17 8,25 33,-11 8,-19 z"
         style="fill:#e8bb66;fill-opacity:1;stroke:#754a2d;stroke-opacity:1" />
      <path
         id="upper-right-arm"
         d="m 40,-39 21,-22 17,12 -9,26 -24,7 z"
         style="fill:#e8bb66;fill-opacity:1;stroke:#754a2d;stroke-opacity:1" />
      <path
         id="lower-right-arm"
         d="M 47,20 78,34 72,57 43,51 33,31 Z"
         style="fill:#e8bb66;fill-opacity:1;stroke:#754a2d;stroke-opacity:1" />
    </g>
    <circle
       id="body"
       cx="0"
       cy="1"
       r="55"
       fill="#5b825d"
       stroke="#294735"
       stroke-width="7"
       style="fill:#e8bb66;fill-opacity:1;stroke:#754a2d;stroke-opacity:1" />
    <g
       id="shattered-armor"
       fill="#c98d49"
       stroke="#754a2d"
       stroke-width="5">
      <path
         id="left-crown-shard"
         d="M-43-33-31-70-17-53-23-28Z" />
      <path
         id="right-crown-shard"
         d="M16-51 35-70 43-31 26-25Z" />
      <path
         id="upper-left-shard"
         d="M-49-25-17-38-6-25-20-9-47-8Z" />
      <path
         id="upper-right-shard"
         d="M18-26 38-39 51-12 34 1 22-7Z" />
      <path
         id="lower-left-shard"
         d="M-48 14-27 4-12 17-21 48-44 36Z" />
      <path
         id="lower-right-shard"
         d="M23 9 50 19 36 48 17 39 9 22Z" />
    </g>
    <g
       id="exposed-cracks"
       fill="none"
       stroke="#354e38"
       stroke-width="4"
       stroke-linecap="round"
       style="stroke:#754a2d;stroke-opacity:1">
      <path
         id="upper-crack"
         d="M-4-39 4-25-4-13 7 1"
         style="stroke:#754a2d;stroke-opacity:1" />
      <path
         id="lower-crack"
         d="M 11.490395,23.455366 -2.3152538,30.315254 7.2802256,41.762711 -3.350282,52.035028"
         style="stroke:#754a2d;stroke-opacity:1"
         sodipodi:nodetypes="cccc" />
    </g>
    <g
       id="broken-scarab-crown"
       fill="#2da09e"
       stroke="#205f65"
       stroke-width="3">
      <path
         id="left-wing"
         d="m -11.657627,-53.517514 -18,-10 5,20 12,3 z" />
      <path
         id="right-wing-shard"
         d="m 16.762711,-52 15,-10 -6,15 -8,3 z" />
      <path
         id="scarab-half"
         d="m -5.4124295,-57.105085 c 1,-12 14,-12 16.9999995,-1 l -4.9999995,14 -11,-1 z" />
    </g>
    <g
       id="eyes"
       fill="#fff1a8"
       stroke="#633a2a"
       stroke-width="2"
       transform="matrix(0,1,1,0,0.21174372,-24.364606)">
      <ellipse
         id="left-eye"
         cx="15"
         cy="-8"
         rx="9"
         ry="6" />
      <ellipse
         id="right-eye"
         cx="15"
         cy="10"
         rx="9"
         ry="6" />
    </g>
    <g
       id="pupils"
       fill="#782f2b"
       transform="matrix(0,1,1,0,0.21174372,-28.364606)">
      <circle
         id="left-pupil"
         cx="19"
         cy="-8"
         r="3.5" />
      <circle
         id="right-pupil"
         cx="19"
         cy="10"
         r="3.5" />
    </g>
    <path
       id="mouth"
       d="m -9.6566119,13.483361 7.9999997,-5.0000004 7,7.0000004 8.0000002,-6.0000004"
       fill="none"
       stroke="#294735"
       stroke-width="5"
       stroke-linecap="round"
       style="stroke:#754a2d;stroke-opacity:1" />
  </g>
</svg>
