<?xml version="1.0" encoding="UTF-8" standalone="no"?>
<svg
   viewBox="0 0 180 180"
   role="img"
   aria-labelledby="title description"
   version="1.1"
   id="mireheart-titan-broken-svg"
   sodipodi:docname="mireheart-titan-broken.svg"
   inkscape:version="1.4.4 (dcaf3e7, 2026-05-05)"
   xmlns:inkscape="http://www.inkscape.org/namespaces/inkscape"
   xmlns:sodipodi="http://sodipodi.sourceforge.net/DTD/sodipodi-0.dtd"
   xmlns="http://www.w3.org/2000/svg"
   xmlns:svg="http://www.w3.org/2000/svg">
  <sodipodi:namedview
     id="namedview1"
     pagecolor="#ffffff"
     bordercolor="#000000"
     borderopacity="0.25"
     inkscape:showpageshadow="2"
     inkscape:pageopacity="0.0"
     inkscape:pagecheckerboard="0"
     inkscape:deskcolor="#d1d1d1"
     inkscape:zoom="2.0121347"
     inkscape:cx="90.202711"
     inkscape:cy="81.753972"
     inkscape:window-width="1614"
     inkscape:window-height="712"
     inkscape:window-x="0"
     inkscape:window-y="33"
     inkscape:window-maximized="0"
     inkscape:current-layer="draining-tendrils" />
  <title
     id="title">Mireheart Titan with shattered armor</title>
  <desc
     id="description">The Mireheart Titan after its cypress shell ruptures, exposing a brilliant parasitic swamp heart and grasping leech-like tendrils.</desc>
  <defs
     id="definitions">
    <linearGradient
       id="broken-cypress"
       x1="0"
       y1="0"
       x2="1"
       y2="1">
      <stop
         id="bark-highlight"
         offset="0"
         stop-color="#68796a" />
      <stop
         id="bark-shadow"
         offset="1"
         stop-color="#273d39" />
    </linearGradient>
    <radialGradient
       id="exposed-mireheart">
      <stop
         id="heart-white"
         offset="0"
         stop-color="#ffffff" />
      <stop
         id="heart-lime"
         offset=".32"
         stop-color="#d7ff8f" />
      <stop
         id="heart-teal"
         offset=".7"
         stop-color="#55e6ad" />
      <stop
         id="heart-dark"
         offset="1"
         stop-color="#287468" />
    </radialGradient>
  </defs>
  <g
     id="mireheart-titan-broken"
     transform="translate(90 91)"
     stroke-linejoin="round">
    <g
       id="massive-arms"
       fill="#3e5b51"
       stroke="#173331"
       stroke-width="7">
      <path
         id="left-arm"
         d="M -42,-27 -70,-17 -82,17 -43.641722,49.951754 -39,19 Z"
         sodipodi:nodetypes="cccccc" />
      <path
         id="right-arm"
         d="M 42,-28 70,-17 82,17 42.647753,50.951754 39,19 Z"
         sodipodi:nodetypes="cccccc" />
    </g>
    <ellipse
       id="drowned-body"
       cx="0"
       cy="5"
       rx="56"
       ry="63"
       fill="#3f5d52"
       stroke="#16312f"
       stroke-width="7" />
    <circle
       id="heart-glow"
       cx="0"
       cy="19"
       r="38"
       fill="#6ff0b2"
       opacity=".24" />
    <circle
       id="exposed-heart"
       cx="0"
       cy="19"
       r="27"
       fill="url(#exposed-mireheart)"
       stroke="#174f47"
       stroke-width="6" />
    <path
       id="heart-pulse"
       d="M-13 20-5 11 2 25 10 8 17 18"
       fill="none"
       stroke="#efffd3"
       stroke-width="5"
       stroke-linecap="round" />
    <g
       id="shattered-shell"
       fill="url(#broken-cypress)"
       stroke="#203b37"
       stroke-width="6">
      <path
         id="broken-crown"
         d="M-43-38-36-71-18-57-8-79 3-57 20-70 16-43-4-30-22-27Z" />
      <path
         id="left-shoulder"
         d="M-58-32-31-51-12-34-24-9-54-1Z" />
      <path
         id="right-shoulder"
         d="M13-31 31-50 58-31 54-1 25-10Z" />
      <path
         id="left-seal-shard"
         d="M-30-1-13-17-5-3-15 13-30 25Z" />
      <path
         id="right-seal-shard"
         d="M11-13 29 3 30 26 14 12Z" />
      <path
         id="rooted-waist"
         d="M-49 34-29 28-13 51 10 52 27 29 49 35 39 61 16 71 0 62-17 72-40 61Z" />
    </g>
    <g
       id="draining-tendrils"
       fill="none"
       stroke="#89e49c"
       stroke-width="5"
       stroke-linecap="round">
      <path
         id="left-tendril"
         d="M-20 17C-43 7-55 15-61 32" />
      <path
         id="right-tendril"
         d="M20 16C45 3 59 12 65 30" />
      <path
         id="lower-tendril"
         d="m 5.9758771,44.503015 c -2,11 -11,17 -23.0000001,20"
         sodipodi:nodetypes="cc" />
    </g>
    <g
       id="face"
       stroke="#14302d"
       stroke-width="4"
       stroke-linecap="round">
      <path
         id="left-eye"
         d="m-29-22 16-4 7 9-18 5Z"
         fill="#e5ffb8" />
      <path
         id="right-eye"
         d="m8-18 16-6 7 9-18 6Z"
         fill="#e5ffb8" />
      <path
         id="mouth"
         d="m-20-2 11-7 13 8 14-9"
         fill="none"
         stroke-width="5" />
    </g>
  </g>
</svg>
